<svg xmlns="http://www.w3.org/2000/svg" width="64" height="64" fill="none" viewBox="0 0 64 64"><defs><linearGradient id="clion_svg__a" x1="4.067" x2="62.664" y1="4.327" y2="62.923" gradientUnits="userSpaceOnUse"><stop offset=".29" stop-color="#009AE5"/><stop offset=".7" stop-color="#00D980"/></linearGradient><linearGradient id="clion_svg__b" x1="56.329" x2="2.874" y1="-.391" y2="24.393" gradientUnits="userSpaceOnUse"><stop offset=".3" stop-color="#FF2D90"/><stop offset=".54" stop-color="#009AE5"/></linearGradient></defs><path fill="url(#clion_svg__a)" d="M64 59.878V25.75a4.13 4.13 0 0 0-2.52-3.8L24.057 6.153a4.1 4.1 0 0 0-1.638-.325l-18.329.15A4.124 4.124 0 0 0 0 10.103v17.665c0 .806.236 1.593.678 2.267l21.109 32.109a4.12 4.12 0 0 0 3.447 1.859h34.641A4.125 4.125 0 0 0 64 59.878"/><path fill="url(#clion_svg__b)" d="M58 14.988V4.125A4.125 4.125 0 0 0 53.875 0H41.309q-.3 0-.598.044L3.527 5.492A4.125 4.125 0 0 0 0 9.573v15.398a4.125 4.125 0 0 0 4.126 4.125l18.505-.005c.425 0 .848-.066 1.253-.195l31.246-9.98A4.13 4.13 0 0 0 58 14.988"/><path fill="#FF2D90" d="M58 16.453V4.194A4.125 4.125 0 0 0 53.81.07L43.003.008c-1.18.019-2.535.781-3.304 1.678L6.993 39.844c-.64.748-.993 1.7-.993 2.684v11.35a4.125 4.125 0 0 0 4.125 4.125h11.003c1.19 0 2.321-.514 3.105-1.409L56.979 19.17A4.12 4.12 0 0 0 58 16.453"/><path fill="#000" d="M52 12H12v40h40z"/><path fill="#fff" d="M33 44H17v3h16zM20.747 31.243a7.3 7.3 0 0 1-2.744-2.787q-.997-1.774-.997-3.961c0-2.187.332-2.778.997-3.96a7.3 7.3 0 0 1 2.744-2.787q1.747-1.013 3.901-1.014 1.823 0 3.345.675a6.86 6.86 0 0 1 2.535 1.892 6.44 6.44 0 0 1 1.355 2.793h-3.065a4.05 4.05 0 0 0-.895-1.431 4 4 0 0 0-1.431-.95 4.9 4.9 0 0 0-1.822-.332q-1.33 0-2.402.665a4.6 4.6 0 0 0-1.677 1.827q-.606 1.164-.606 2.62 0 1.459.606 2.621a4.6 4.6 0 0 0 1.677 1.828q1.072.664 2.402.664a4.9 4.9 0 0 0 1.822-.332 4.02 4.02 0 0 0 2.326-2.38h3.065a6.44 6.44 0 0 1-1.355 2.792 6.86 6.86 0 0 1-2.535 1.892q-1.522.675-3.345.675-2.154 0-3.901-1.013zM37.33 16.992v12.37h7.117v2.636H34.414V16.992z"/></svg>