<svg xmlns="http://www.w3.org/2000/svg" width="64" height="64" fill="none" viewBox="0 0 64 64"><defs><linearGradient id="dataspell_svg__a" x1="4.067" x2="62.664" y1="4.327" y2="62.923" gradientUnits="userSpaceOnUse"><stop offset=".28" stop-color="#007DFE"/><stop offset=".73" stop-color="#00D980"/></linearGradient><linearGradient id="dataspell_svg__b" x1="56.329" x2="2.875" y1="-.391" y2="24.392" gradientUnits="userSpaceOnUse"><stop offset=".32" stop-color="#F0EB18"/><stop offset=".55" stop-color="#007DFE"/></linearGradient></defs><path fill="url(#dataspell_svg__a)" d="M64 59.878V25.75a4.13 4.13 0 0 0-2.52-3.8L24.057 6.153a4.1 4.1 0 0 0-1.638-.325l-18.329.15A4.124 4.124 0 0 0 0 10.103v17.665c0 .806.236 1.593.678 2.267l21.109 32.109a4.12 4.12 0 0 0 3.447 1.859h34.641A4.125 4.125 0 0 0 64 59.878"/><path fill="url(#dataspell_svg__b)" d="M58 14.988V4.125A4.125 4.125 0 0 0 53.875 0H41.309q-.3 0-.598.044L3.527 5.492A4.125 4.125 0 0 0 0 9.573v15.398a4.125 4.125 0 0 0 4.126 4.125l18.505-.005c.425 0 .848-.066 1.253-.195l31.246-9.98A4.13 4.13 0 0 0 58 14.988"/><path fill="#F0EB18" d="M58 16.45V4.191A4.125 4.125 0 0 0 53.81.067L43 0c-1.181.019-2.531.786-3.3 1.683L6.993 39.84c-.64.748-.993 1.7-.993 2.685v11.349A4.125 4.125 0 0 0 10.125 58h11.003c1.19 0 2.321-.514 3.105-1.409l32.746-37.425A4.12 4.12 0 0 0 58 16.45"/><path fill="#000" d="M52 12H12v40h40z"/><path fill="#fff" d="M33 44H17v3h16zM17.012 16.992h5.713q2.133 0 3.821.965a6.9 6.9 0 0 1 2.642 2.674q.954 1.71.954 3.864t-.954 3.865a6.9 6.9 0 0 1-2.642 2.674q-1.688.964-3.821.964h-5.713zm8.028 11.876q1.008-.6 1.554-1.72.547-1.12.547-2.653 0-1.534-.547-2.653-.546-1.12-1.554-1.721-1.008-.6-2.348-.6h-2.755v9.947h2.755q1.34 0 2.348-.6M34.713 31.664q-1.26-.59-1.973-1.65t-.734-2.444h2.937q0 .654.343 1.147t.954.772q.61.278 1.404.278c.53 0 .952-.083 1.334-.251q.574-.252.89-.702t.316-1.029q0-.718-.434-1.19-.435-.471-1.195-.654l-2.648-.59q-1.071-.234-1.865-.809a4 4 0 0 1-1.232-1.42q-.44-.846-.44-1.908 0-1.286.665-2.31.664-1.023 1.854-1.597 1.19-.573 2.701-.573c1.511 0 1.933.186 2.733.558s1.424.888 1.871 1.549q.67.99.68 2.277h-2.926q0-.546-.289-.98c-.289-.435-.466-.515-.82-.676a2.9 2.9 0 0 0-1.217-.24q-.686 0-1.205.23a1.9 1.9 0 0 0-.81.643q-.29.412-.29.96 0 .621.403 1.028.402.407 1.098.579l2.552.557q1.103.226 1.967.852a4.45 4.45 0 0 1 1.345 1.544q.481.917.482 1.999 0 1.329-.702 2.385-.702 1.054-1.967 1.656-1.265.6-2.894.6t-2.889-.59"/></svg>