<svg xmlns="http://www.w3.org/2000/svg" width="64" height="64" fill="none" viewBox="0 0 64 64"><defs><linearGradient id="goland_svg__a" x1="64.391" x2="39.607" y1="56.329" y2="2.874" gradientUnits="userSpaceOnUse"><stop offset=".24" stop-color="#00D886"/><stop offset=".51" stop-color="#007DFE"/></linearGradient><linearGradient id="goland_svg__b" x1="59.676" x2="1.08" y1="4.067" y2="62.663" gradientUnits="userSpaceOnUse"><stop offset=".27" stop-color="#007DFE"/><stop offset=".7" stop-color="#D249FC"/></linearGradient></defs><path fill="#00D886" d="M47.55 58h12.259a4.125 4.125 0 0 0 4.124-4.19l-.176-11.044a4.13 4.13 0 0 0-1.44-3.066L24.159 6.993A4.13 4.13 0 0 0 21.474 6H10.125A4.125 4.125 0 0 0 6 10.125v11.003c0 1.19.514 2.321 1.409 3.105l37.425 32.746A4.12 4.12 0 0 0 47.55 58"/><path fill="url(#goland_svg__a)" d="M49.013 58h10.862A4.125 4.125 0 0 0 64 53.875V41.309q0-.3-.044-.598L58.508 3.527A4.124 4.124 0 0 0 54.427 0H39.029a4.125 4.125 0 0 0-4.125 4.126l.005 18.505c0 .425.066.848.195 1.253l9.979 31.246a4.13 4.13 0 0 0 3.93 2.87"/><path fill="url(#goland_svg__b)" d="M4.125 64h34.128a4.13 4.13 0 0 0 3.8-2.52L57.85 24.057c.219-.518.33-1.076.324-1.638l-.15-18.329A4.124 4.124 0 0 0 53.9 0H36.234c-.805 0-1.593.236-2.266.678L1.86 21.787A4.13 4.13 0 0 0 0 25.234v34.641A4.125 4.125 0 0 0 4.125 64"/><path fill="#000" d="M52 12H12v40h40z"/><path fill="#fff" d="M19.748 31.243a7.3 7.3 0 0 1-2.743-2.787q-.997-1.774-.997-3.961c0-2.187.332-2.778.997-3.96s1.58-2.112 2.743-2.787q1.747-1.013 3.902-1.014 1.747 0 3.222.622a6.9 6.9 0 0 1 2.486 1.747 6.4 6.4 0 0 1 1.42 2.594h-3.13a3.9 3.9 0 0 0-.926-1.228q-.584-.52-1.367-.803c-.783-.283-1.083-.284-1.683-.284q-1.33 0-2.402.664a4.6 4.6 0 0 0-1.677 1.828q-.606 1.163-.606 2.62c0 1.457.202 1.846.606 2.621a4.6 4.6 0 0 0 1.677 1.828q1.072.664 2.402.664 1.232 0 2.235-.461t1.591-1.276a3.3 3.3 0 0 0 .633-1.833l.01.31h-3.526v-2.304h6.357v1.18q0 1.982-.96 3.585a6.9 6.9 0 0 1-2.626 2.525q-1.666.921-3.736.921c-2.07 0-2.737-.337-3.902-1.013zM36.271 31.243a7.3 7.3 0 0 1-2.755-2.787q-1.002-1.774-1.002-3.961c0-2.187.333-2.778 1.002-3.96a7.3 7.3 0 0 1 2.755-2.787q1.752-1.013 3.918-1.014c1.443 0 2.738.338 3.907 1.013a7.3 7.3 0 0 1 2.749 2.787q.996 1.774.997 3.961c0 2.187-.333 2.778-.997 3.96s-1.581 2.113-2.75 2.788q-1.752 1.013-3.906 1.013c-1.437 0-2.75-.338-3.918-1.013m6.308-2.23q1.062-.67 1.662-1.854t.6-2.664-.6-2.664-1.662-1.854-2.39-.67-2.395.67a4.6 4.6 0 0 0-1.672 1.854q-.606 1.185-.606 2.664t.606 2.664 1.672 1.854 2.395.67q1.33 0 2.39-.67M33 44H17v3h16z"/></svg>