<svg xmlns="http://www.w3.org/2000/svg" width="64" height="64" fill="none" viewBox="0 0 64 64"><defs><linearGradient id="phpstorm_svg__a" x1="56.329" x2="2.874" y1="-.391" y2="24.392" gradientUnits="userSpaceOnUse"><stop offset=".16" stop-color="#D249FC"/><stop offset=".55" stop-color="#FF2D90"/></linearGradient><linearGradient id="phpstorm_svg__b" x1="4.067" x2="62.664" y1="4.326" y2="62.923" gradientUnits="userSpaceOnUse"><stop offset=".3" stop-color="#FF2D90"/><stop offset=".7" stop-color="#7256FF"/></linearGradient></defs><path fill="#D249FC" d="M58 16.446V4.187A4.125 4.125 0 0 0 53.81.063L42.765.239A4.13 4.13 0 0 0 39.7 1.68L6.993 39.837c-.64.748-.993 1.7-.993 2.685v11.35a4.125 4.125 0 0 0 4.125 4.124h11.003c1.19 0 2.321-.514 3.105-1.409l32.746-37.425A4.12 4.12 0 0 0 58 16.446"/><path fill="url(#phpstorm_svg__a)" d="M58 14.988V4.125A4.125 4.125 0 0 0 53.875 0H41.309q-.3 0-.598.044L3.527 5.492A4.125 4.125 0 0 0 0 9.573v15.398a4.125 4.125 0 0 0 4.126 4.125l18.505-.005c.425 0 .848-.066 1.253-.195l31.246-9.98A4.13 4.13 0 0 0 58 14.988"/><path fill="url(#phpstorm_svg__b)" d="M64 59.878V25.75a4.13 4.13 0 0 0-2.52-3.8L24.057 6.153a4.1 4.1 0 0 0-1.638-.325l-18.329.15A4.124 4.124 0 0 0 0 10.103v17.665c0 .806.236 1.593.678 2.267l21.109 32.109a4.12 4.12 0 0 0 3.447 1.859h34.641A4.125 4.125 0 0 0 64 59.878"/><path fill="#000" d="M52 12H12v40h40z"/><path fill="#fff" d="M33 44H17v3h16zM16.993 16.992h6.442q1.586 0 2.78.579 1.196.579 1.845 1.63.648 1.05.648 2.432c0 .922-.22 1.759-.659 2.466q-.66 1.062-1.87 1.646-1.212.584-2.83.584h-3.43V32h-2.927zm7.54 6.63q.553-.273.852-.782.3-.51.3-1.195c0-.685-.1-.842-.3-1.174q-.3-.5-.852-.772-.552-.273-1.291-.273h-3.323v4.47h3.323q.74 0 1.291-.273M32.572 31.664q-1.26-.59-1.972-1.65t-.735-2.444h2.937q0 .654.343 1.147t.954.772q.611.278 1.404.278c.53 0 .952-.083 1.335-.251q.572-.252.89-.702c.317-.45.315-.643.315-1.029q0-.718-.434-1.19-.435-.471-1.195-.654l-2.647-.59q-1.073-.234-1.866-.809a4 4 0 0 1-1.232-1.42q-.44-.846-.44-1.908 0-1.286.665-2.31.665-1.023 1.854-1.597 1.19-.573 2.702-.573c1.512 0 1.933.186 2.733.558q1.2.558 1.87 1.549t.681 2.277h-2.926q0-.546-.29-.98a1.9 1.9 0 0 0-.82-.676 2.9 2.9 0 0 0-1.216-.24q-.687 0-1.206.23a1.9 1.9 0 0 0-.81.643q-.29.412-.289.96 0 .621.402 1.028t1.099.579l2.551.557q1.104.226 1.967.852a4.45 4.45 0 0 1 1.345 1.544q.482.917.482 1.999 0 1.329-.701 2.385-.703 1.054-1.967 1.656-1.264.6-2.895.6-1.63 0-2.888-.59"/></svg>