<svg xmlns="http://www.w3.org/2000/svg" width="64" height="64" fill="none" viewBox="0 0 64 64"><defs><linearGradient id="pycharm_svg__a" x1="7.671" x2="61.126" y1="64.393" y2="39.609" gradientUnits="userSpaceOnUse"><stop offset=".1" stop-color="#00D886"/><stop offset=".59" stop-color="#F0EB18"/></linearGradient><linearGradient id="pycharm_svg__b" x1="59.933" x2="1.337" y1="59.676" y2="1.08" gradientUnits="userSpaceOnUse"><stop offset=".3" stop-color="#F0EB18"/><stop offset=".7" stop-color="#00C4F4"/></linearGradient></defs><path fill="#00D886" d="M6 47.55v12.259a4.125 4.125 0 0 0 4.19 4.124l11.044-.176a4.13 4.13 0 0 0 3.066-1.44l32.707-38.158c.64-.748.993-1.7.993-2.685V10.125A4.125 4.125 0 0 0 53.875 6H42.872c-1.19 0-2.321.514-3.105 1.409L7.021 44.834A4.12 4.12 0 0 0 6 47.55"/><path fill="url(#pycharm_svg__a)" d="M6 49.015v10.862a4.125 4.125 0 0 0 4.125 4.125h12.566q.3 0 .598-.044l37.185-5.448A4.125 4.125 0 0 0 64 54.429V39.03a4.125 4.125 0 0 0-4.127-4.125l-18.504.005c-.426 0-.849.066-1.254.195L8.871 45.085A4.13 4.13 0 0 0 6 49.015z"/><path fill="url(#pycharm_svg__b)" d="M0 4.125v34.128c0 1.658.993 3.154 2.52 3.8L39.943 57.85c.518.219 1.075.33 1.638.324l18.329-.15A4.125 4.125 0 0 0 64 53.9V36.234c0-.806-.236-1.593-.678-2.267L42.213 1.86A4.13 4.13 0 0 0 38.766 0H4.125A4.125 4.125 0 0 0 0 4.125"/><path fill="#000" d="M52 12H12v40h40z"/><path fill="#fff" d="M33 44H17v3h16zM16.993 16.992h6.442q1.586 0 2.78.579 1.196.579 1.845 1.63.648 1.05.648 2.432c0 .922-.22 1.759-.659 2.466q-.66 1.062-1.87 1.646-1.212.584-2.83.584h-3.43V32h-2.927zm7.54 6.63q.553-.273.852-.782.3-.51.3-1.195c0-.685-.1-.842-.3-1.174q-.3-.5-.852-.772-.552-.273-1.291-.273h-3.324v4.47h3.324q.74 0 1.291-.273M33.713 31.243a7.3 7.3 0 0 1-2.744-2.787q-.996-1.774-.996-3.961c0-2.187.332-2.778.996-3.96a7.3 7.3 0 0 1 2.744-2.787q1.748-1.013 3.902-1.014 1.823 0 3.344.675a6.86 6.86 0 0 1 2.535 1.892 6.44 6.44 0 0 1 1.356 2.793h-3.066a4.05 4.05 0 0 0-.895-1.431 4 4 0 0 0-1.43-.95 4.9 4.9 0 0 0-1.823-.332q-1.33 0-2.402.665a4.6 4.6 0 0 0-1.677 1.827q-.606 1.164-.606 2.62 0 1.459.606 2.621a4.6 4.6 0 0 0 1.677 1.828q1.072.664 2.402.664.986 0 1.822-.332a4.02 4.02 0 0 0 2.326-2.38h3.066a6.44 6.44 0 0 1-1.356 2.792 6.86 6.86 0 0 1-2.535 1.892q-1.522.675-3.344.675-2.154 0-3.902-1.013z"/></svg>