<svg xmlns="http://www.w3.org/2000/svg" width="64" height="64" fill="none" viewBox="0 0 64 64"><defs><linearGradient id="rustrover_svg__a" x1="7.671" x2="61.125" y1="64.393" y2="39.609" gradientUnits="userSpaceOnUse"><stop offset=".08" stop-color="#00D886"/><stop offset=".46" stop-color="#FFAB00"/></linearGradient><linearGradient id="rustrover_svg__b" x1="59.932" x2="1.336" y1="59.676" y2="1.08" gradientUnits="userSpaceOnUse"><stop offset=".19" stop-color="#FFAB00"/><stop offset=".83" stop-color="#FF004C"/></linearGradient></defs><path fill="#00D886" d="M6 47.55v12.258a4.125 4.125 0 0 0 4.19 4.124l11.044-.176a4.12 4.12 0 0 0 3.066-1.44l32.707-38.158c.64-.747.993-1.7.993-2.684V10.125A4.125 4.125 0 0 0 53.875 6H42.872c-1.19 0-2.321.514-3.105 1.409L7.021 44.833A4.12 4.12 0 0 0 6 47.55"/><path fill="url(#rustrover_svg__a)" d="M6 49.015v10.862a4.125 4.125 0 0 0 4.125 4.125h12.566q.3 0 .598-.044l37.185-5.448A4.125 4.125 0 0 0 64 54.429V39.03a4.125 4.125 0 0 0-4.127-4.125l-18.504.005c-.426 0-.849.066-1.254.195L8.871 45.085A4.13 4.13 0 0 0 6 49.015z"/><path fill="url(#rustrover_svg__b)" d="M0 4.125v34.128c0 1.658.993 3.154 2.52 3.8L39.943 57.85c.518.219 1.075.33 1.638.324l18.329-.15A4.125 4.125 0 0 0 64 53.9V36.234c0-.806-.236-1.593-.678-2.267L42.213 1.86A4.13 4.13 0 0 0 38.766 0H4.125A4.125 4.125 0 0 0 0 4.125"/><path fill="#000" d="M52 12H12v40h40z"/><path fill="#fff" d="M33 44H17v3h16zM16.992 16.992h6.442q1.576 0 2.776.579t1.85 1.63.648 2.432c0 .922-.22 1.75-.66 2.46q-.66 1.068-1.875 1.651-1.217.584-2.825.584h-3.43v5.67h-2.926zm7.54 6.63q.553-.274.853-.783.3-.51.3-1.184c0-.45-.1-.852-.3-1.185q-.3-.498-.852-.772-.552-.273-1.292-.273h-3.323v4.47h3.323q.74 0 1.292-.273m-2.63 1.763h3.194L29.03 32h-3.355zM31.613 16.992h6.442q1.575 0 2.776.579t1.85 1.63.648 2.432c0 .922-.22 1.75-.66 2.46q-.659 1.068-1.875 1.651-1.217.584-2.824.584h-3.43v5.67h-2.927zm7.54 6.63q.553-.274.853-.783.3-.51.3-1.184c0-.45-.1-.852-.3-1.185q-.3-.498-.852-.772-.552-.273-1.292-.273h-3.323v4.47h3.323q.74 0 1.292-.273m-2.63 1.763h3.194L43.651 32h-3.355z"/></svg>