<svg xmlns="http://www.w3.org/2000/svg" width="64" height="64" fill="none" viewBox="0 0 64 64"><defs><linearGradient id="webstorm_svg__a" x1="7.671" x2="61.126" y1="64.392" y2="39.609" gradientUnits="userSpaceOnUse"><stop offset=".22" stop-color="#F0EB18"/><stop offset=".59" stop-color="#00C4F4"/></linearGradient><linearGradient id="webstorm_svg__b" x1="59.932" x2="1.337" y1="59.676" y2="1.079" gradientUnits="userSpaceOnUse"><stop offset=".19" stop-color="#00C4F4"/><stop offset=".83" stop-color="#007DFE"/></linearGradient></defs><path fill="#F0EB18" d="M6 47.55v12.258a4.125 4.125 0 0 0 4.19 4.124l11.044-.176a4.12 4.12 0 0 0 3.066-1.44l32.707-38.158c.64-.747.993-1.7.993-2.684V10.125A4.125 4.125 0 0 0 53.875 6H42.872c-1.19 0-2.321.514-3.105 1.409L7.021 44.833A4.12 4.12 0 0 0 6 47.55"/><path fill="url(#webstorm_svg__a)" d="M6 49.015v10.862a4.125 4.125 0 0 0 4.125 4.125h12.566q.3 0 .598-.044l37.185-5.448A4.125 4.125 0 0 0 64 54.429V39.03a4.125 4.125 0 0 0-4.127-4.125l-18.504.005c-.426 0-.849.066-1.254.195L8.871 45.085A4.13 4.13 0 0 0 6 49.015z"/><path fill="url(#webstorm_svg__b)" d="M0 4.125v34.128c0 1.658.993 3.154 2.52 3.8L39.943 57.85c.518.219 1.075.33 1.638.324l18.329-.15A4.125 4.125 0 0 0 64 53.9V36.234c0-.806-.236-1.593-.678-2.267L42.213 1.86A4.13 4.13 0 0 0 38.766 0H4.125A4.125 4.125 0 0 0 0 4.125"/><path fill="#000" d="M52 12H12v40h40z"/><path fill="#fff" d="M33 44H17v3h16zM19.051 16.992l2.423 10.955 2.583-10.955h2.958l2.701 10.955 2.348-10.955h2.97l-3.645 15.006h-3.334l-2.53-10.9-2.561 10.9H19.64l-3.623-15.006zM38.662 31.664q-1.26-.59-1.972-1.65t-.735-2.444h2.937q0 .654.343 1.147t.954.772q.61.278 1.404.278c.53 0 .952-.083 1.335-.251q.573-.252.889-.702t.316-1.029q0-.718-.434-1.19-.435-.471-1.195-.654l-2.648-.59q-1.071-.234-1.865-.809a4 4 0 0 1-1.232-1.42q-.44-.846-.44-1.908 0-1.286.665-2.31.664-1.023 1.854-1.597 1.19-.573 2.701-.573c1.008 0 1.934.186 2.734.558q1.2.558 1.87 1.549t.68 2.277h-2.925q0-.546-.29-.98c-.29-.435-.466-.515-.82-.676a2.9 2.9 0 0 0-1.217-.24q-.686 0-1.205.23a1.9 1.9 0 0 0-.81.643q-.29.412-.289.96 0 .621.402 1.028t1.099.579l2.55.557q1.105.226 1.968.852a4.45 4.45 0 0 1 1.345 1.544 4.2 4.2 0 0 1 .482 1.999q0 1.329-.702 2.385-.702 1.054-1.966 1.656-1.266.6-2.894.6-1.63 0-2.889-.59"/></svg>