<svg width="128" height="128" viewBox="0 0 128 128" fill="none" xmlns="http://www.w3.org/2000/svg">
  <defs>
    <linearGradient id="site-bg" x1="18" y1="16" x2="112" y2="112" gradientUnits="userSpaceOnUse">
      <stop stop-color="#12203A"/>
      <stop offset="1" stop-color="#0A1020"/>
    </linearGradient>
    <linearGradient id="site-shield" x1="40" y1="28" x2="90" y2="104" gradientUnits="userSpaceOnUse">
      <stop stop-color="#17325F"/>
      <stop offset="1" stop-color="#101B34"/>
    </linearGradient>
    <linearGradient id="site-accent" x1="44" y1="32" x2="88" y2="86" gradientUnits="userSpaceOnUse">
      <stop stop-color="#40E1BF"/>
      <stop offset="1" stop-color="#8FB6FF"/>
    </linearGradient>
  </defs>
  <rect x="8" y="8" width="112" height="112" rx="28" fill="url(#site-bg)"/>
  <rect x="8.75" y="8.75" width="110.5" height="110.5" rx="27.25" stroke="#26385B" stroke-width="1.5"/>
  <path d="M64 22L92 33.5V59.5C92 79.6 80.3 98.2 64 108C47.7 98.2 36 79.6 36 59.5V33.5L64 22Z" fill="url(#site-shield)" stroke="url(#site-accent)" stroke-width="3"/>
  <path d="M50 44V70C50 77.7 56.3 84 64 84H77" stroke="#D9F5FF" stroke-width="6" stroke-linecap="round" stroke-linejoin="round"/>
  <path d="M78 52V84" stroke="#D9F5FF" stroke-width="6" stroke-linecap="round"/>
  <circle cx="50" cy="44" r="5.5" fill="#40E1BF"/>
  <circle cx="78" cy="52" r="5.5" fill="#8FB6FF"/>
  <circle cx="78" cy="84" r="5.5" fill="#F6B24A"/>
  <path d="M56 66L64 74L82 58" stroke="#40E1BF" stroke-width="7" stroke-linecap="round" stroke-linejoin="round"/>
</svg>
